<svg width="64" height="64" viewBox="0 0 64 64" fill="none" xmlns="http://www.w3.org/2000/svg">
    <g clip-path="url(#clip0_93_1331)">
    <rect width="64" height="64" rx="32" fill="#32292F"/>
    <path d="M45.1429 29.7143H34.2858V18.8571C34.2858 18.5428 34.0286 18.2857 33.7143 18.2857H30.2858C29.9715 18.2857 29.7143 18.5428 29.7143 18.8571V29.7143H18.8572C18.5429 29.7143 18.2858 29.9714 18.2858 30.2857V33.7143C18.2858 34.0286 18.5429 34.2857 18.8572 34.2857H29.7143V45.1428C29.7143 45.4571 29.9715 45.7143 30.2858 45.7143H33.7143C34.0286 45.7143 34.2858 45.4571 34.2858 45.1428V34.2857H45.1429C45.4572 34.2857 45.7143 34.0286 45.7143 33.7143V30.2857C45.7143 29.9714 45.4572 29.7143 45.1429 29.7143Z" fill="#F5F0F6"/>
    <path d="M32 0C14.3286 0 0 14.3286 0 32C0 49.6714 14.3286 64 32 64C49.6714 64 64 49.6714 64 32C64 14.3286 49.6714 0 32 0ZM32 58.5714C17.3286 58.5714 5.42857 46.6714 5.42857 32C5.42857 17.3286 17.3286 5.42857 32 5.42857C46.6714 5.42857 58.5714 17.3286 58.5714 32C58.5714 46.6714 46.6714 58.5714 32 58.5714Z" fill="#F5F0F6"/>
    </g>
    <defs>
    <clipPath id="clip0_93_1331">
    <rect width="64" height="64" rx="32" fill="#F5F0F6"/>
    </clipPath>
    </defs>
    </svg>
    