<svg width="32" height="32" viewBox="0 0 32 32" fill="none" xmlns="http://www.w3.org/2000/svg">
    <path d="M28.8571 14.6429H7.96071L20.4679 3.78571C20.6679 3.61071 20.5464 3.28571 20.2821 3.28571H17.1214C16.9821 3.28571 16.85 3.33571 16.7464 3.425L3.25 15.1357C3.12639 15.2429 3.02725 15.3753 2.95931 15.5241C2.89136 15.673 2.8562 15.8346 2.8562 15.9982C2.8562 16.1618 2.89136 16.3235 2.95931 16.4723C3.02725 16.6211 3.12639 16.7536 3.25 16.8607L16.825 28.6429C16.8786 28.6893 16.9429 28.7143 17.0107 28.7143H20.2786C20.5429 28.7143 20.6643 28.3857 20.4643 28.2143L7.96071 17.3571H28.8571C29.0143 17.3571 29.1429 17.2286 29.1429 17.0714V14.9286C29.1429 14.7714 29.0143 14.6429 28.8571 14.6429Z" fill="white"/>
    </svg>
    