<svg width="32" height="32" viewBox="0 0 32 32" fill="none" xmlns="http://www.w3.org/2000/svg">
    <path d="M28.1416 8.03929C27.4728 6.48886 26.5086 5.08508 25.3032 3.90715C24.0939 2.71858 22.6683 1.77521 21.1042 1.12858C19.4771 0.450004 17.7506 0.107147 15.9708 0.107147C14.1911 0.107147 12.4645 0.450004 10.8375 1.125C9.26376 1.77858 7.85343 2.71429 6.63848 3.90358C5.43391 5.08217 4.46974 6.48579 3.80004 8.03572C3.10731 9.64286 2.75562 11.35 2.75562 13.1071C2.75562 15.6286 3.35598 18.1393 4.53541 20.5607C5.48392 22.5071 6.809 24.4036 8.47866 26.2071C11.3313 29.2857 14.3225 31.1679 15.1715 31.6714C15.4125 31.8145 15.6874 31.8898 15.9673 31.8893C16.2444 31.8893 16.5179 31.8179 16.763 31.6714C17.6121 31.1679 20.6033 29.2857 23.4559 26.2071C25.1256 24.4071 26.4507 22.5071 27.3992 20.5607C28.5857 18.1429 29.1861 15.6357 29.1861 13.1107C29.1861 11.3536 28.8344 9.64643 28.1416 8.03929ZM15.9708 29.15C13.6298 27.6536 5.3134 21.7286 5.3134 13.1107C5.3134 10.3286 6.41822 7.71429 8.42538 5.74286C10.4396 3.76786 13.1182 2.67858 15.9708 2.67858C18.8235 2.67858 21.5021 3.76786 23.5163 5.74643C25.5235 7.71429 26.6283 10.3286 26.6283 13.1107C26.6283 21.7286 18.3119 27.6536 15.9708 29.15ZM15.9708 7.10715C12.5178 7.10715 9.71848 9.92143 9.71848 13.3929C9.71848 16.8643 12.5178 19.6786 15.9708 19.6786C19.4239 19.6786 22.2232 16.8643 22.2232 13.3929C22.2232 9.92143 19.4239 7.10715 15.9708 7.10715ZM18.7844 16.2214C18.4154 16.5935 17.9768 16.8885 17.494 17.0896C17.0111 17.2906 16.4935 17.3937 15.9708 17.3929C14.9087 17.3929 13.9104 16.975 13.1573 16.2214C12.7872 15.8504 12.4937 15.4095 12.2938 14.9241C12.0938 14.4387 11.9913 13.9183 11.9921 13.3929C11.9921 12.325 12.4077 11.3214 13.1573 10.5643C13.9104 9.80715 14.9087 9.39286 15.9708 9.39286C17.033 9.39286 18.0313 9.80715 18.7844 10.5643C19.5375 11.3214 19.9496 12.325 19.9496 13.3929C19.9496 14.4607 19.5375 15.4643 18.7844 16.2214Z" fill="#F5F0F6"/>
    </svg>
    