<svg width="32" height="26" viewBox="0 0 32 26" fill="none" xmlns="http://www.w3.org/2000/svg">
    <path d="M22.3607 8.09286C22.5714 8.09286 22.7821 8.1 22.9893 8.11071C22.1179 3.51429 17.3357 0 11.5643 0C5.17857 0 0 4.30714 0 9.62143C0 12.5179 1.55714 15.1286 3.99643 16.8929C4.09704 16.9639 4.17909 17.0581 4.23565 17.1675C4.29222 17.2769 4.32164 17.3983 4.32143 17.5214C4.32143 17.6071 4.30357 17.6857 4.28214 17.7679C4.08571 18.4929 3.775 19.6536 3.76071 19.7071C3.73571 19.8 3.7 19.8929 3.7 19.9893C3.7 20.2 3.87143 20.375 4.08571 20.375C4.16786 20.375 4.23571 20.3429 4.30714 20.3036L6.83929 18.8429C7.02857 18.7321 7.23214 18.6643 7.45357 18.6643C7.56786 18.6643 7.68214 18.6821 7.79286 18.7143C8.975 19.0536 10.25 19.2429 11.5679 19.2429C11.7821 19.2429 11.9929 19.2393 12.2036 19.2286C11.95 18.4786 11.8143 17.6893 11.8143 16.8714C11.8143 12.0214 16.5357 8.09286 22.3607 8.09286ZM15.4214 5.00357C16.2714 5.00357 16.9643 5.69286 16.9643 6.54286C16.9643 7.39286 16.275 8.08214 15.4214 8.08214C14.5714 8.08214 13.8786 7.39286 13.8786 6.54286C13.8786 5.69286 14.5714 5.00357 15.4214 5.00357ZM7.71071 8.08214C6.86071 8.08214 6.16786 7.39286 6.16786 6.54286C6.16786 5.69286 6.85714 5.00357 7.71071 5.00357C8.56429 5.00357 9.25357 5.69286 9.25357 6.54286C9.25357 7.39286 8.56071 8.08214 7.71071 8.08214ZM28.6679 22.925C30.7 21.4536 31.9964 19.2821 31.9964 16.8643C31.9964 12.4357 27.6821 8.84643 22.3571 8.84643C17.0357 8.84643 12.7179 12.4357 12.7179 16.8643C12.7179 21.2929 17.0321 24.8821 22.3571 24.8821C23.4571 24.8821 24.5214 24.725 25.5036 24.4429C25.5964 24.4143 25.6893 24.4 25.7857 24.4C25.9714 24.4 26.1393 24.4571 26.2964 24.5464L28.4071 25.7607C28.4679 25.7964 28.525 25.8214 28.5929 25.8214C28.6352 25.8218 28.6772 25.8137 28.7164 25.7978C28.7556 25.7819 28.7913 25.7583 28.8214 25.7286C28.8512 25.6985 28.8747 25.6628 28.8907 25.6236C28.9066 25.5843 28.9146 25.5423 28.9143 25.5C28.9143 25.4214 28.8821 25.3429 28.8643 25.2643C28.8536 25.2214 28.5929 24.2536 28.4286 23.6464C28.4107 23.5786 28.3964 23.5107 28.3964 23.4429C28.4 23.2321 28.5071 23.0429 28.6679 22.925ZM19.15 15.5857C18.4393 15.5857 17.8643 15.0107 17.8643 14.3036C17.8643 13.5964 18.4393 13.0214 19.15 13.0214C19.8607 13.0214 20.4357 13.5964 20.4357 14.3036C20.4357 15.0107 19.8571 15.5857 19.15 15.5857ZM25.575 15.5857C24.8643 15.5857 24.2893 15.0107 24.2893 14.3036C24.2893 13.5964 24.8643 13.0214 25.575 13.0214C26.2857 13.0214 26.8607 13.5964 26.8607 14.3036C26.859 14.6437 26.7229 14.9694 26.4821 15.2096C26.2412 15.4498 25.9151 15.585 25.575 15.5857Z" fill="white"/>
    </svg>
    