<svg width="32" height="32" viewBox="0 0 32 32" fill="none" xmlns="http://www.w3.org/2000/svg">
    <path d="M10.5715 4.28572H10.2858C10.4429 4.28572 10.5715 4.15715 10.5715 4.00001V4.28572H21.4286V4.00001C21.4286 4.15715 21.5572 4.28572 21.7143 4.28572H21.4286V6.85715H24.0001V4.00001C24.0001 2.73929 22.9751 1.71429 21.7143 1.71429H10.2858C9.02505 1.71429 8.00005 2.73929 8.00005 4.00001V6.85715H10.5715V4.28572ZM28.5715 6.85715H3.42862C2.79648 6.85715 2.28577 7.36787 2.28577 8.00001V9.14287C2.28577 9.30001 2.41434 9.42858 2.57148 9.42858H4.72862L5.61077 28.1072C5.66791 29.325 6.67505 30.2857 7.89291 30.2857H24.1072C25.3286 30.2857 26.3322 29.3286 26.3893 28.1072L27.2715 9.42858H29.4286C29.5858 9.42858 29.7143 9.30001 29.7143 9.14287V8.00001C29.7143 7.36787 29.2036 6.85715 28.5715 6.85715ZM23.8322 27.7143H8.16791L7.30362 9.42858H24.6965L23.8322 27.7143Z" fill="white"/>
    </svg>
    