<svg width="36" height="36" viewBox="0 0 36 36" fill="none" xmlns="http://www.w3.org/2000/svg">
    <path d="M32.0625 6.75H11.5312C11.3766 6.75 11.25 6.87656 11.25 7.03125V9C11.25 9.15469 11.3766 9.28125 11.5312 9.28125H32.0625C32.2172 9.28125 32.3438 9.15469 32.3438 9V7.03125C32.3438 6.87656 32.2172 6.75 32.0625 6.75ZM32.0625 16.7344H11.5312C11.3766 16.7344 11.25 16.8609 11.25 17.0156V18.9844C11.25 19.1391 11.3766 19.2656 11.5312 19.2656H32.0625C32.2172 19.2656 32.3438 19.1391 32.3438 18.9844V17.0156C32.3438 16.8609 32.2172 16.7344 32.0625 16.7344ZM32.0625 26.7188H11.5312C11.3766 26.7188 11.25 26.8453 11.25 27V28.9688C11.25 29.1234 11.3766 29.25 11.5312 29.25H32.0625C32.2172 29.25 32.3438 29.1234 32.3438 28.9688V27C32.3438 26.8453 32.2172 26.7188 32.0625 26.7188ZM3.65625 8.01562C3.65625 8.27416 3.70717 8.53017 3.80611 8.76903C3.90505 9.00789 4.05007 9.22493 4.23288 9.40774C4.4157 9.59056 4.63273 9.73557 4.87159 9.83451C5.11045 9.93345 5.36646 9.98438 5.625 9.98438C5.88354 9.98438 6.13955 9.93345 6.37841 9.83451C6.61727 9.73557 6.8343 9.59056 7.01712 9.40774C7.19993 9.22493 7.34495 9.00789 7.44389 8.76903C7.54283 8.53017 7.59375 8.27416 7.59375 8.01562C7.59375 7.75709 7.54283 7.50108 7.44389 7.26222C7.34495 7.02336 7.19993 6.80632 7.01712 6.62351C6.8343 6.44069 6.61727 6.29568 6.37841 6.19674C6.13955 6.0978 5.88354 6.04688 5.625 6.04688C5.36646 6.04688 5.11045 6.0978 4.87159 6.19674C4.63273 6.29568 4.4157 6.44069 4.23288 6.62351C4.05007 6.80632 3.90505 7.02336 3.80611 7.26222C3.70717 7.50108 3.65625 7.75709 3.65625 8.01562ZM3.65625 18C3.65625 18.2585 3.70717 18.5145 3.80611 18.7534C3.90505 18.9923 4.05007 19.2093 4.23288 19.3921C4.4157 19.5749 4.63273 19.7199 4.87159 19.8189C5.11045 19.9178 5.36646 19.9688 5.625 19.9688C5.88354 19.9688 6.13955 19.9178 6.37841 19.8189C6.61727 19.7199 6.8343 19.5749 7.01712 19.3921C7.19993 19.2093 7.34495 18.9923 7.44389 18.7534C7.54283 18.5145 7.59375 18.2585 7.59375 18C7.59375 17.7415 7.54283 17.4855 7.44389 17.2466C7.34495 17.0077 7.19993 16.7907 7.01712 16.6079C6.8343 16.4251 6.61727 16.2801 6.37841 16.1811C6.13955 16.0822 5.88354 16.0312 5.625 16.0312C5.36646 16.0312 5.11045 16.0822 4.87159 16.1811C4.63273 16.2801 4.4157 16.4251 4.23288 16.6079C4.05007 16.7907 3.90505 17.0077 3.80611 17.2466C3.70717 17.4855 3.65625 17.7415 3.65625 18ZM3.65625 27.9844C3.65625 28.2429 3.70717 28.4989 3.80611 28.7378C3.90505 28.9766 4.05007 29.1937 4.23288 29.3765C4.4157 29.5593 4.63273 29.7043 4.87159 29.8033C5.11045 29.9022 5.36646 29.9531 5.625 29.9531C5.88354 29.9531 6.13955 29.9022 6.37841 29.8033C6.61727 29.7043 6.8343 29.5593 7.01712 29.3765C7.19993 29.1937 7.34495 28.9766 7.44389 28.7378C7.54283 28.4989 7.59375 28.2429 7.59375 27.9844C7.59375 27.7258 7.54283 27.4698 7.44389 27.231C7.34495 26.9921 7.19993 26.7751 7.01712 26.5923C6.8343 26.4094 6.61727 26.2644 6.37841 26.1655C6.13955 26.0665 5.88354 26.0156 5.625 26.0156C5.36646 26.0156 5.11045 26.0665 4.87159 26.1655C4.63273 26.2644 4.4157 26.4094 4.23288 26.5923C4.05007 26.7751 3.90505 26.9921 3.80611 27.231C3.70717 27.4698 3.65625 27.7258 3.65625 27.9844Z" fill="white"/>
    </svg>
    