<svg width="32" height="32" viewBox="0 0 32 32" fill="none" xmlns="http://www.w3.org/2000/svg">
    <g clip-path="url(#clip0_118_246)">
    <path d="M16 0C7.16429 0 0 7.16429 0 16C0 24.8357 7.16429 32 16 32C24.8357 32 32 24.8357 32 16C32 7.16429 24.8357 0 16 0ZM16 29.2857C8.66429 29.2857 2.71429 23.3357 2.71429 16C2.71429 8.66429 8.66429 2.71429 16 2.71429C23.3357 2.71429 29.2857 8.66429 29.2857 16C29.2857 23.3357 23.3357 29.2857 16 29.2857Z" fill="white"/>
    <path d="M14.2857 9.71429C14.2857 10.1689 14.4663 10.605 14.7878 10.9265C15.1093 11.248 15.5453 11.4286 16 11.4286C16.4546 11.4286 16.8907 11.248 17.2122 10.9265C17.5337 10.605 17.7143 10.1689 17.7143 9.71429C17.7143 9.25963 17.5337 8.82359 17.2122 8.5021C16.8907 8.18061 16.4546 8 16 8C15.5453 8 15.1093 8.18061 14.7878 8.5021C14.4663 8.82359 14.2857 9.25963 14.2857 9.71429ZM16.8571 13.7143H15.1428C14.9857 13.7143 14.8571 13.8429 14.8571 14V23.7143C14.8571 23.8714 14.9857 24 15.1428 24H16.8571C17.0143 24 17.1428 23.8714 17.1428 23.7143V14C17.1428 13.8429 17.0143 13.7143 16.8571 13.7143Z" fill="#F5F0F6"/>
    </g>
    <defs>
    <clipPath id="clip0_118_246">
    <rect width="32" height="32" fill="#F5F0F6"/>
    </clipPath>
    </defs>
    </svg>
    