<svg width="40" height="39" viewBox="0 0 40 39" fill="none" xmlns="http://www.w3.org/2000/svg">
    <path d="M39.3303 15.1473H27.9018C27.7053 15.1473 27.5446 15.304 27.5446 15.4955V17.5848C27.5446 17.7763 27.7053 17.933 27.9018 17.933H39.3303C39.5268 17.933 39.6875 17.7763 39.6875 17.5848V15.4955C39.6875 15.304 39.5268 15.1473 39.3303 15.1473ZM33.3482 21.067H27.9018C27.7053 21.067 27.5446 21.2237 27.5446 21.4152V23.5045C27.5446 23.696 27.7053 23.8527 27.9018 23.8527H33.3482C33.5446 23.8527 33.7053 23.696 33.7053 23.5045V21.4152C33.7053 21.2237 33.5446 21.067 33.3482 21.067ZM18.4509 11.2517H16.5178C16.241 11.2517 16.0178 11.4693 16.0178 11.7392V22.5338C16.0178 22.6905 16.0937 22.8342 16.2232 22.9256L22.8705 27.6526C23.0937 27.8093 23.4062 27.7657 23.5669 27.5481L24.7143 26.0203V26.016C24.875 25.7983 24.8259 25.4936 24.6026 25.3369L18.9464 21.3499V11.7392C18.9509 11.4693 18.7232 11.2517 18.4509 11.2517Z" fill="white"/>
    <path d="M33.0714 26.547H30.491C30.241 26.547 30.0044 26.6732 29.8705 26.8821C29.3027 27.7597 28.6363 28.5729 27.8839 29.3066C26.5883 30.5739 25.0523 31.5836 23.3615 32.2795C21.6071 33.002 19.7455 33.3676 17.8258 33.3676C15.9017 33.3676 14.0401 33.002 12.2901 32.2795C10.5982 31.583 9.07584 30.5819 7.7678 29.3066C6.45976 28.0313 5.43298 26.547 4.71869 24.8973C3.97762 23.1911 3.60262 21.376 3.60262 19.5C3.60262 17.624 3.97762 15.8133 4.71869 14.1027C5.43298 12.453 6.45976 10.9688 7.7678 9.69342C9.07584 8.41808 10.5982 7.41697 12.2901 6.72054C14.0401 5.99799 15.9062 5.63237 17.8258 5.63237C19.7499 5.63237 21.6115 5.99799 23.3615 6.72054C25.0535 7.41697 26.5758 8.41808 27.8839 9.69342C28.6363 10.4271 29.3027 11.2403 29.8705 12.1179C30.0044 12.3268 30.241 12.453 30.491 12.453H33.0714C33.3794 12.453 33.5758 12.1396 33.4374 11.8741C30.5267 6.22869 24.6249 2.55938 18.0357 2.48538C8.38834 2.36786 0.374943 10.0678 0.357086 19.4652C0.339229 28.88 8.16512 36.519 17.8214 36.519C24.4955 36.519 30.4955 32.8366 33.4374 27.1259C33.4688 27.065 33.4837 26.9973 33.4806 26.9292C33.4776 26.8611 33.4567 26.7949 33.4201 26.7369C33.3834 26.6788 33.3321 26.6309 33.271 26.5977C33.21 26.5645 33.1413 26.547 33.0714 26.547Z" fill="white"/>
    <path d="M33.0714 26.547H30.491C30.241 26.547 30.0044 26.6732 29.8705 26.8821C29.3027 27.7597 28.6363 28.5729 27.8839 29.3066C26.5883 30.5739 25.0523 31.5836 23.3615 32.2795C21.6071 33.002 19.7455 33.3676 17.8258 33.3676C15.9017 33.3676 14.0401 33.002 12.2901 32.2795C10.5982 31.583 9.07584 30.5819 7.7678 29.3066C6.45976 28.0313 5.43298 26.547 4.71869 24.8973C3.97762 23.1911 3.60262 21.376 3.60262 19.5C3.60262 17.624 3.97762 15.8133 4.71869 14.1027C5.43298 12.453 6.45976 10.9688 7.7678 9.69342C9.07584 8.41808 10.5982 7.41697 12.2901 6.72054C14.0401 5.99799 15.9062 5.63237 17.8258 5.63237C19.7499 5.63237 21.6115 5.99799 23.3615 6.72054C25.0535 7.41697 26.5758 8.41808 27.8839 9.69342C28.6363 10.4271 29.3027 11.2403 29.8705 12.1179C30.0044 12.3268 30.241 12.453 30.491 12.453H33.0714C33.3794 12.453 33.5758 12.1396 33.4374 11.8741C30.5267 6.22869 24.6249 2.55938 18.0357 2.48538C8.38834 2.36786 0.374943 10.0678 0.357086 19.4652C0.339229 28.88 8.16512 36.519 17.8214 36.519C24.4955 36.519 30.4955 32.8366 33.4374 27.1259C33.4688 27.065 33.4837 26.9973 33.4806 26.9292C33.4776 26.8611 33.4567 26.7949 33.4201 26.7369C33.3834 26.6788 33.3321 26.6309 33.271 26.5977C33.21 26.5645 33.1413 26.547 33.0714 26.547Z" fill="white"/>
    </svg>
    