<svg width="36" height="36" viewBox="0 0 36 36" fill="none" xmlns="http://www.w3.org/2000/svg">
    <path d="M15.75 6.7147C15.75 7.31144 15.9871 7.88374 16.409 8.3057C16.831 8.72765 17.4033 8.9647 18 8.9647C18.5967 8.9647 19.169 8.72765 19.591 8.3057C20.0129 7.88374 20.25 7.31144 20.25 6.7147C20.25 6.11797 20.0129 5.54567 19.591 5.12371C19.169 4.70176 18.5967 4.4647 18 4.4647C17.4033 4.4647 16.831 4.70176 16.409 5.12371C15.9871 5.54567 15.75 6.11797 15.75 6.7147ZM15.75 17.9647C15.75 18.5614 15.9871 19.1337 16.409 19.5557C16.831 19.9777 17.4033 20.2147 18 20.2147C18.5967 20.2147 19.169 19.9777 19.591 19.5557C20.0129 19.1337 20.25 18.5614 20.25 17.9647C20.25 17.368 20.0129 16.7957 19.591 16.3737C19.169 15.9518 18.5967 15.7147 18 15.7147C17.4033 15.7147 16.831 15.9518 16.409 16.3737C15.9871 16.7957 15.75 17.368 15.75 17.9647ZM15.75 29.2147C15.75 29.8114 15.9871 30.3837 16.409 30.8057C16.831 31.2277 17.4033 31.4647 18 31.4647C18.5967 31.4647 19.169 31.2277 19.591 30.8057C20.0129 30.3837 20.25 29.8114 20.25 29.2147C20.25 28.618 20.0129 28.0457 19.591 27.6237C19.169 27.2018 18.5967 26.9647 18 26.9647C17.4033 26.9647 16.831 27.2018 16.409 27.6237C15.9871 28.0457 15.75 28.618 15.75 29.2147Z" fill="white"/>
    </svg>
    