<svg width="32" height="32" viewBox="0 0 32 32" fill="none" xmlns="http://www.w3.org/2000/svg">
    <path d="M6.91781 24.5714C6.98923 24.5714 7.06066 24.5643 7.13209 24.5536L13.1392 23.5C13.2107 23.4857 13.2785 23.4536 13.3285 23.4L28.4678 8.26072C28.5009 8.22768 28.5272 8.18844 28.5451 8.14523C28.563 8.10203 28.5722 8.05571 28.5722 8.00894C28.5722 7.96216 28.563 7.91585 28.5451 7.87264C28.5272 7.82944 28.5009 7.79019 28.4678 7.75715L22.5321 1.81787C22.4642 1.75001 22.3749 1.71429 22.2785 1.71429C22.1821 1.71429 22.0928 1.75001 22.0249 1.81787L6.88566 16.9572C6.83209 17.0107 6.79995 17.075 6.78566 17.1464L5.73209 23.1536C5.69735 23.3449 5.70976 23.5418 5.76826 23.7273C5.82676 23.9127 5.92957 24.0811 6.0678 24.2179C6.30352 24.4464 6.59995 24.5714 6.91781 24.5714ZM9.32495 18.3429L22.2785 5.39287L24.8964 8.01072L11.9428 20.9607L8.76781 21.5214L9.32495 18.3429ZM29.1428 27.5714H2.85709C2.22495 27.5714 1.71423 28.0822 1.71423 28.7143V30C1.71423 30.1572 1.8428 30.2857 1.99995 30.2857H29.9999C30.1571 30.2857 30.2857 30.1572 30.2857 30V28.7143C30.2857 28.0822 29.7749 27.5714 29.1428 27.5714Z" fill="#F5F0F6"/>
    </svg>
    