<svg width="33" height="34" viewBox="0 0 33 34" fill="none" xmlns="http://www.w3.org/2000/svg">
    <path d="M30.9909 27.7467C30.1818 25.8382 29.0076 24.1046 27.5337 22.6425C26.0643 21.1761 24.3236 20.0071 22.4079 19.1997C22.3907 19.1912 22.3736 19.1869 22.3564 19.1784C25.0287 17.2563 26.7659 14.1254 26.7659 10.593C26.7659 4.74121 22.0047 0 16.1282 0C10.2517 0 5.49052 4.74121 5.49052 10.593C5.49052 14.1254 7.22773 17.2563 9.90001 19.1827C9.88286 19.1912 9.8657 19.1955 9.84854 19.204C7.9269 20.0113 6.20256 21.1688 4.72272 22.6467C3.25022 24.11 2.07619 25.8433 1.26548 27.751C0.469032 29.6187 0.0394921 31.621 0.00010726 33.6497C-0.0010376 33.6953 0.00699225 33.7407 0.0237239 33.7831C0.0404555 33.8256 0.0655503 33.8643 0.0975296 33.8969C0.129509 33.9296 0.167725 33.9555 0.209928 33.9732C0.25213 33.9909 0.297464 34 0.343258 34H2.91689C3.10562 34 3.25575 33.8505 3.26004 33.6668C3.34583 30.3693 4.67554 27.2812 7.02612 24.9405C9.45821 22.5186 12.6881 21.1859 16.1282 21.1859C19.5683 21.1859 22.7982 22.5186 25.2303 24.9405C27.5809 27.2812 28.9106 30.3693 28.9964 33.6668C29.0007 33.8548 29.1508 34 29.3395 34H31.9132C31.9589 34 32.0043 33.9909 32.0465 33.9732C32.0887 33.9555 32.1269 33.9296 32.1589 33.8969C32.1909 33.8643 32.216 33.8256 32.2327 33.7831C32.2494 33.7407 32.2574 33.6953 32.2563 33.6497C32.2134 31.608 31.7888 29.6219 30.9909 27.7467ZM16.1282 17.9397C14.1594 17.9397 12.3064 17.1751 10.9123 15.7869C9.51826 14.3987 8.75046 12.5535 8.75046 10.593C8.75046 8.63241 9.51826 6.78719 10.9123 5.39899C12.3064 4.0108 14.1594 3.24623 16.1282 3.24623C18.097 3.24623 19.95 4.0108 21.3441 5.39899C22.7381 6.78719 23.506 8.63241 23.506 10.593C23.506 12.5535 22.7381 14.3987 21.3441 15.7869C19.95 17.1751 18.097 17.9397 16.1282 17.9397Z" fill="white"/>
    </svg>
    